<svg xmlns:xlink="http://www.w3.org/1999/xlink" xmlns="http://www.w3.org/2000/svg" width="24" height="24" viewBox="0 0 24 24">
    <path d="M17 2c2.75 0 5 2.25 5 5v9.906C22 19.72 19.719 22 16.937 22H7.095A5.095 5.095 0 0 1 2 16.906V7c0-2.75 2.25-5 5-5h10zm0 1.563H7A3.428 3.428 0 0 0 3.562 7v9.938c0 1.937 1.594 3.5 3.532 3.5h9.843c1.938 0 3.5-1.594 3.5-3.532V7A3.428 3.428 0 0 0 17 3.562zM12 7.28c2.594 0 4.688 2.125 4.688 4.719 0 2.594-2.094 4.719-4.688 4.719S7.312 14.594 7.312 12c0-2.594 2.094-4.719 4.688-4.719zm0 1.563c-1.719 0-3.125 1.406-3.125 3.156 0 1.75 1.406 3.156 3.125 3.156S15.125 13.75 15.125 12c0-1.75-1.406-3.156-3.125-3.156zm4.688-3.719c.875 0 1.562.719 1.562 1.563 0 .843-.688 1.562-1.563 1.562a1.567 1.567 0 0 1-1.562-1.563c0-.843.688-1.562 1.563-1.562z" fill="#FFFFFF" fill-rule="nonzero"/>
</svg>