<svg xmlns:xlink="http://www.w3.org/1999/xlink" xmlns="http://www.w3.org/2000/svg" width="24" height="24" viewBox="0 0 24 24">
    <path d="M20.5 2c.833 0 1.5.583 1.5 1.417V20.5c0 .75-.667 1.417-1.5 1.417h-17c-.833 0-1.5-.584-1.5-1.417V3.417C2 2.667 2.667 2 3.5 2zm-5 7.25c-1.5 0-2.417.75-2.833 1.5V9.417H9.833v9.5h3.084V14.25c0-1.25.25-2.417 1.75-2.417 1.389 0 1.491 1.215 1.5 2.255V19h2.916v-5.25c0-2.5-.583-4.5-3.583-4.5zM8 9.417H5v9.5h3v-9.5zm-1.5-4.75c-.917 0-1.75.833-1.75 1.75 0 1 .833 1.75 1.75 1.75 1 0 1.75-.834 1.75-1.75 0-1-.833-1.75-1.75-1.75z" fill="#FFFFFF" fill-rule="nonzero"/>
</svg>