<svg xmlns:xlink="http://www.w3.org/1999/xlink" xmlns="http://www.w3.org/2000/svg" width="24" height="24" viewBox="0 0 24 24">
    <path d="M8.257 20.233c7.537 0 11.676-6.237 11.676-11.655 0-.18-.02-.36-.04-.52.8-.58 1.5-1.3 2.059-2.139-.74.34-1.54.56-2.36.66.84-.52 1.5-1.32 1.8-2.28-.8.48-1.66.82-2.599 1C18.053 4.5 16.974 4 15.814 4a4.104 4.104 0 0 0-4.098 4.098c0 .32.04.64.1.94A11.652 11.652 0 0 1 3.38 4.76c-.36.6-.56 1.3-.56 2.059 0 1.42.72 2.679 1.82 3.399-.66-.02-1.3-.2-1.84-.5 0 1.979 1.38 3.678 3.28 4.058-.52.16-1.28.16-1.86.08a4.142 4.142 0 0 0 3.839 2.839c-1.8 1.4-3.759 1.84-6.058 1.7 1.8 1.159 3.958 1.838 6.257 1.838z" fill="#FFFFFF" fill-rule="nonzero"/>
</svg>