<svg xmlns:xlink="http://www.w3.org/1999/xlink" xmlns="http://www.w3.org/2000/svg" width="24" height="24" viewBox="0 0 24 24">
    <path d="m16.954 5.188 2.216.168c1.234.093 2.243.99 2.447 2.173.51 2.96.51 5.982 0 8.942-.204 1.184-1.213 2.08-2.447 2.174l-2.216.167c-3.297.25-6.61.25-9.908 0l-2.216-.167c-1.234-.094-2.243-.99-2.447-2.174-.51-2.96-.51-5.982 0-8.942.204-1.184 1.213-2.08 2.447-2.173l2.216-.168c3.298-.25 6.61-.25 9.908 0zm-6.482 4.199c-.198-.115-.45.023-.45.246v4.734c0 .223.252.361.45.246l4.07-2.367a.283.283 0 0 0 0-.492z" fill="#FFFFFF" fill-rule="nonzero"/>
</svg>